<svg width="22" height="22" viewBox="0 0 22 22" fill="none" xmlns="http://www.w3.org/2000/svg">
<path fill-rule="evenodd" clip-rule="evenodd" d="M8 3V2H6V3H4C2.34315 3 1 4.34315 1 6V12.021V17C1 18.6569 2.34315 20 4 20H18C19.6569 20 21 18.6569 21 17V6C21 4.34315 19.6569 3 18 3H15.958V2H13.958V3H8ZM3 13.021H12.534C13.0863 13.021 13.534 12.5733 13.534 12.021C13.534 11.4687 13.0863 11.021 12.534 11.021H3V6C3 5.44772 3.44772 5 4 5H6V5.999H8V5H13.958V5.999H15.958V5H18C18.5523 5 19 5.44772 19 6V17C19 17.5523 18.5523 18 18 18H4C3.44772 18 3 17.5523 3 17V13.021Z" fill="#6D7E98"/>
<path fill-rule="evenodd" clip-rule="evenodd" d="M15.0312 12.021C15.0312 11.4687 15.479 11.021 16.0312 11.021H16.2673C16.8195 11.021 17.2673 11.4687 17.2673 12.021C17.2673 12.5733 16.8195 13.021 16.2673 13.021H16.0312C15.479 13.021 15.0312 12.5733 15.0312 12.021Z" fill="#6D7E98"/>
</svg>
