<svg width="22" height="22" viewBox="0 0 22 22" fill="none" xmlns="http://www.w3.org/2000/svg">
<path fill-rule="evenodd" clip-rule="evenodd" d="M14.7942 2.28571C14.8716 2.09887 15.0539 1.97705 15.2561 1.97705H20.5001C20.7762 1.97705 21.0001 2.20091 21.0001 2.47705V7.72095C21.0001 7.92318 20.8783 8.10549 20.6915 8.18289C20.5046 8.26028 20.2896 8.2175 20.1466 8.0745L18.2124 6.14042L8.89481 15.3174C8.51053 15.6959 7.89534 15.7014 7.50432 15.3299L5.27406 13.211L2.55936 15.5408L1.25684 14.0231L4.65686 11.1051C5.04612 10.771 5.62502 10.7857 5.9969 11.139L8.18059 13.2137L16.7982 4.72618L14.9026 2.83061C14.7596 2.68761 14.7168 2.47255 14.7942 2.28571Z" fill="#E51045"/>
<path fill-rule="evenodd" clip-rule="evenodd" d="M8 3V2H6V3H4C3.20431 3 2.44126 3.31613 1.87868 3.87871C1.31608 4.44131 1 5.20434 1 6V17C1 17.7957 1.31608 18.5587 1.87868 19.1213C2.44126 19.6839 3.20431 20 4 20H18C18.7957 20 19.5587 19.6839 20.1213 19.1213C20.6839 18.5587 21 17.7957 21 17V12C20.7398 12 20.4841 11.8984 20.2929 11.7071L19 10.4142V17C19 17.2652 18.8947 17.5195 18.7071 17.7071C18.5195 17.8946 18.2652 18 18 18H4C3.73482 18 3.48045 17.8946 3.29289 17.7071C3.10535 17.5195 3 17.2652 3 17V6C3 5.7348 3.10535 5.48047 3.29289 5.29292C3.48045 5.10536 3.73482 5 4 5H6V6H8V5H13.5858L12.2929 3.70711C12.1016 3.51586 12 3.26017 12 3H8Z" fill="#6D7E98"/>
</svg>
