<svg width="14" height="14" viewBox="0 0 14 14" fill="none" xmlns="http://www.w3.org/2000/svg">
<path fill-rule="evenodd" clip-rule="evenodd" d="M3.11111 0H10.8889C12.6071 0 14 1.39289 14 3.11111V10.8889C14 12.6071 12.6071 14 10.8889 14H3.11111C1.39289 14 0 12.6071 0 10.8889V3.11111C0 1.39289 1.39289 0 3.11111 0ZM9.85849 6.11683C9.70825 6.3381 9.5089 6.52163 9.27601 6.65312C9.56764 6.7946 9.82208 7.00242 10.019 7.2599C10.2159 7.51739 10.3497 7.81739 10.4098 8.1359C10.4699 8.45441 10.4546 8.78259 10.3651 9.09412C10.2756 9.40565 10.1143 9.69188 9.89433 9.92991C8.86455 10.9511 6.78633 10.9395 3.53833 10.8547L4.54943 3.17102C4.67028 3.16613 4.79081 3.16103 4.91087 3.15595C6.837 3.07441 8.64127 2.99803 9.65089 3.91613C9.83985 4.1054 9.98249 4.33581 10.0677 4.58933C10.1529 4.84285 10.1784 5.11262 10.1421 5.3776C10.1058 5.64258 10.0087 5.89556 9.85849 6.11683ZM8.31933 5.06025C8.39244 4.43647 7.75623 4.20236 6.22478 4.3027L5.99611 6.076C7.085 6.16545 8.22911 5.82481 8.31933 5.06025ZM5.588 9.59032C6.744 9.57808 8.3793 9.56075 8.5021 8.59215C8.61176 7.72726 7.64111 7.13459 5.84133 7.27381L5.54188 9.59081C5.55716 9.59065 5.57254 9.59049 5.588 9.59032Z" fill="#f1f3f4"/>
</svg>
