<svg width="14" height="15" viewBox="0 0 14 15" fill="none" xmlns="http://www.w3.org/2000/svg">
<path fill-rule="evenodd" clip-rule="evenodd" d="M3.11111 0.5H10.8889C12.6071 0.5 14 1.89289 14 3.61111V11.3889C14 13.1071 12.6071 14.5 10.8889 14.5H3.11111C1.39289 14.5 0 13.1071 0 11.3889V3.61111C0 1.89289 1.39289 0.5 3.11111 0.5ZM9.85849 6.61683C9.70825 6.8381 9.5089 7.02163 9.27601 7.15312C9.56764 7.2946 9.82208 7.50242 10.019 7.7599C10.2159 8.01739 10.3497 8.31739 10.4098 8.6359C10.4699 8.95441 10.4546 9.28259 10.3651 9.59412C10.2756 9.90565 10.1143 10.1919 9.89433 10.4299C8.86455 11.4511 6.78633 11.4395 3.53833 11.3547L4.54943 3.67102C4.67028 3.66613 4.79081 3.66103 4.91087 3.65595C6.837 3.57441 8.64127 3.49803 9.65089 4.41613C9.83985 4.6054 9.98249 4.83581 10.0677 5.08933C10.1529 5.34285 10.1784 5.61262 10.1421 5.8776C10.1058 6.14258 10.0087 6.39556 9.85849 6.61683ZM8.31933 5.56025C8.39244 4.93647 7.75623 4.70236 6.22478 4.8027L5.99611 6.576C7.085 6.66545 8.22911 6.32481 8.31933 5.56025ZM5.588 10.0903C6.744 10.0781 8.3793 10.0608 8.5021 9.09215C8.61176 8.22726 7.64111 7.63459 5.84133 7.77381L5.54188 10.0908C5.55716 10.0907 5.57254 10.0905 5.588 10.0903Z" fill="#5F6367"/>
</svg>
