<svg width="22" height="22" viewBox="0 0 22 22" fill="none" xmlns="http://www.w3.org/2000/svg">
<path fill-rule="evenodd" clip-rule="evenodd" d="M8.19296 7.38306H2V9.38306H7.7832L16.798 18.2618L14.9004 20.1594C14.7574 20.3024 14.7147 20.5175 14.792 20.7043C14.8694 20.8911 15.0518 21.013 15.254 21.013H20.5C20.7761 21.013 21 20.7891 21 20.513V15.267C21 15.0648 20.8782 14.8824 20.6913 14.805C20.5045 14.7277 20.2894 14.7704 20.1464 14.9134L18.2123 16.8476L8.89467 7.67059C8.70759 7.48634 8.45554 7.38306 8.19296 7.38306Z" fill="#32AA23"/>
<path fill-rule="evenodd" clip-rule="evenodd" d="M8 2V3H14V2H16V3H18C18.7955 3 19.5586 3.31589 20.1213 3.87859C20.684 4.44123 21 5.2044 21 6V11C20.7398 11 20.4841 11.1016 20.2929 11.2929L19 12.5858V6C19 5.73473 18.8946 5.4803 18.7071 5.2928C18.5197 5.10535 18.2653 5 18 5H16V5.999H14V5H8V5.999H6V5H4C3.73466 5 3.48034 5.10535 3.29289 5.2928C3.10539 5.4803 3 5.73473 3 6V17C3 17.2652 3.10535 17.5195 3.29289 17.7071C3.48045 17.8946 3.73482 18 4 18H13.5858L12.2929 19.2929C12.1016 19.4841 12 19.7398 12 20H4C3.20431 20 2.44126 19.6839 1.87868 19.1213C1.31608 18.5587 1 17.7957 1 17V6C1 5.2044 1.31603 4.44123 1.87868 3.87859C2.44137 3.31589 3.20447 3 4 3H6V2H8ZM15.5 18.9142L15.4142 19H15.5V18.9142Z" fill="#6D7E98"/>
</svg>
