<?xml version="1.0" encoding="utf-8"?>
<!-- Generator: Adobe Illustrator 22.1.0, SVG Export Plug-In . SVG Version: 6.00 Build 0)  -->
<svg version="1.1" id="圖層_1" xmlns="http://www.w3.org/2000/svg" xmlns:xlink="http://www.w3.org/1999/xlink" x="0px" y="0px"
	 viewBox="0 0 1000 348" style="enable-background:new 0 0 1000 348;" xml:space="preserve">
<style type="text/css">
	.st0{fill:#00B5B7;}
	.st1{fill:#E6B020;}
</style>
<g>
	<path class="st0" d="M251.3,183.5L267.1,5.7h61.5l-26.6,177.8H251.3z"/>
	<path class="st1" d="M995,161.2c0.3,14.6-2,28.3-7,41.1c-5,12.7-12.1,23.7-21.2,32.7c-9.1,9.1-20,16.1-32.6,21.1
		c-12.6,5-26,7.5-40.2,7.5c-16.7,0-32.4-3.7-47-11c-14.6-7.3-26.3-17.8-35.1-31.4c-8.8-13.7-13.4-29.3-13.8-46.9
		c-0.3-13.4,2.1-26.3,7.3-38.7c5.2-12.4,12.5-23.3,22.1-32.8c9.5-9.5,20.8-16.9,33.8-22.2c13-5.3,26.9-8,41.8-8
		c15.6,0,30.4,3.3,44.2,9.9c13.9,6.6,25.2,16.5,34,29.8C989.9,125.5,994.5,141.8,995,161.2z M933.1,160.1c-0.3-11.2-3.5-20-9.6-26.3
		c-6.1-6.3-13.9-9.4-23.2-9.4c-9.7,0-17.6,2.8-23.6,8.5c-6.1,5.7-10.4,12.5-13.1,20.6c-2.7,8-3.9,15.6-3.8,22.6
		c0.2,10,3.4,18.5,9.5,25.4c6.1,6.9,14.1,10.3,24.1,10.3c7.9,0,14.9-2.5,21.1-7.6c6.2-5.1,10.9-11.6,14.1-19.7
		C931.8,176.4,933.3,168.3,933.1,160.1z"/>
	<path class="st0" d="M201.2,31.1C167.3-2.1,103.3,3.4,37,6.2L4.5,262.4c104.5,2.8,171,3.6,203.6-30.9
		c33.3-35.2,21.1-89.5-19.7-109.4C223.3,101.6,225.8,55.1,201.2,31.1z M159.1,184c-5.3,30-45.5,31.1-83.7,31.1l9.3-72.8
		C137.1,139,163.8,157.5,159.1,184z M153.9,71.5c0.7,21.3-30.3,34.9-64.4,32.2L96.5,49C135.8,45.7,153.2,51.2,153.9,71.5z"/>
	
		<ellipse transform="matrix(0.9956 -9.337335e-02 9.337335e-02 0.9956 -20.4336 26.3253)" class="st0" cx="271.1" cy="231.5" rx="30.7" ry="30"/>
	<path class="st1" d="M767.3,72.3c-17-9.9-37.4-16.8-60.8-16.3c-23.5,0.5-40.3,6.1-55.8,14.6c-15.2,8.2-26.6,21.5-32.7,32.7
		c-7.1,12.9-10.5,26.7-10.2,40c0.3,11.2,2.9,21.4,8.4,31.5c5.3,9.8,12.7,17.4,22.5,23.3c9.8,6,20.9,9.2,34,9.2
		c5.6,0,11.2-0.6,16.6-1.5c5.3-0.9,10.3-1.8,14.2-2.9c3.9-1.1,6.8-2,9.7-3l4.1-33.3h-44.2l5.5-44.9h101.5l-15.2,120.1
		c-9.1,4.9-16.7,7.8-27.3,11.6c-9.4,3.4-20.1,5.6-32,7.8c-11.9,2.2-26.2,2.8-38.2,2.8c-17.1,0-30.4-0.9-45.4-5.6
		c-15.1-4.7-26.3-11.1-38.4-20.8c-12.1-9.7-23.6-24.3-30.5-38.5c-6.9-14.2-11.2-30.4-11.7-49.1c-0.3-12.9,0.5-23.3,4.5-38.5
		c4.2-16,13.5-32.7,25.5-47.7c12.3-15.3,28.7-28.2,50.2-39.7c22.4-12,50.6-18.2,79-18.2c29.9,0,56.9,5.9,83,17.2L767.3,72.3z"/>
	<path class="st0" d="M521.8,75.9h-97.9c-55.6-0.1-87.1,32.1-87.1,71.6l0,0c0,26.4,14.1,49.5,39.9,62.1c-19.6,8-19.2,34.3,12.8,41.1
		c39,8.2,67.9,9.6,70.7,24.1c2.1,11.2-8.5,21.3-37.3,23.8c-28.9,2.5-55.6-5.9-74.2-17.5l-21.5,38.5c50.5,28.4,106.1,26.4,139.4,15.9
		c37.5-11.8,56.1-46,43.4-75c-11.3-25.7-42.8-35.4-87.6-39.7l18.8-1.9l0,0c47.5-4.5,74.2-34.7,74.2-71l0,0c0-11-2.5-21.5-7.2-30.8
		h8.9L521.8,75.9z M426.5,184.3l-1.4,0c-18.2,0.1-28.3-16.2-28-36.3v0c0.2-20.1,7.9-36.4,28.9-36.7l1.4,0
		c19.4-0.3,28.3,16.2,28,36.3C455.1,167.7,447.4,184,426.5,184.3z"/>
</g>
</svg>
